<svg width="29" height="27" viewBox="0 0 29 27" fill="none" xmlns="http://www.w3.org/2000/svg">
<g clip-path="url(#clip0_2499_12)">
<path d="M17.0039 22.7256H10.957V14.9795C10.957 14.4404 11.3203 14.0889 11.8594 14.0889H16.1133C16.6523 14.0889 17.0039 14.4404 17.0039 14.9795V22.7256ZM3.65625 22.0225C3.65625 23.6514 4.64062 24.6123 6.29297 24.6123H21.7031C23.3555 24.6123 24.3281 23.6514 24.3281 22.0225V12.7412L14.6953 4.66699C14.25 4.29199 13.7227 4.30371 13.2891 4.66699L3.65625 12.7412V22.0225ZM0 11.5693C0 12.0498 0.375 12.5068 1.00781 12.5068C1.33594 12.5068 1.60547 12.3311 1.85156 12.1318L13.582 2.28809C13.8398 2.05371 14.1562 2.05371 14.4141 2.28809L26.1445 12.1318C26.3789 12.3311 26.6484 12.5068 26.9766 12.5068C27.5273 12.5068 27.9727 12.167 27.9727 11.6045C27.9727 11.2529 27.8555 11.0186 27.6094 10.8076L15.4102 0.553711C14.543 -0.18457 13.4648 -0.18457 12.5859 0.553711L0.375 10.8076C0.117188 11.0186 0 11.2998 0 11.5693ZM21.3867 6.28418L24.3281 8.76855V3.35449C24.3281 2.83887 24 2.51074 23.4844 2.51074H22.2305C21.7266 2.51074 21.3867 2.83887 21.3867 3.35449V6.28418Z" fill="#186DFE" fill-opacity="0.85"/>
</g>
<defs>
<clipPath id="clip0_2499_12">
<rect width="28.3242" height="26.5957" fill="white"/>
</clipPath>
</defs>
</svg>
