<svg width="20" height="20" viewBox="0 0 20 20" fill="none" xmlns="http://www.w3.org/2000/svg">
<path d="M14.6742 8.83325C14.6742 8.67854 14.6127 8.53016 14.5033 8.42077C14.3939 8.31137 14.2455 8.24991 14.0908 8.24991C13.9361 8.24991 13.7877 8.31137 13.6783 8.42077C13.569 8.53016 13.5075 8.67854 13.5075 8.83325H14.6742ZM6.50749 8.83325C6.50749 8.67854 6.44604 8.53016 6.33664 8.42077C6.22724 8.31137 6.07887 8.24991 5.92416 8.24991C5.76945 8.24991 5.62108 8.31137 5.51168 8.42077C5.40229 8.53016 5.34083 8.67854 5.34083 8.83325H6.50749ZM14.8451 10.4123C14.9551 10.5186 15.1024 10.5774 15.2554 10.5761C15.4083 10.5747 15.5547 10.5134 15.6628 10.4052C15.771 10.2971 15.8323 10.1508 15.8336 9.99783C15.835 9.84488 15.7762 9.69753 15.6699 9.58751L14.8451 10.4123ZM10.0075 4.74987L10.4199 4.33745C10.3105 4.22809 10.1622 4.16666 10.0075 4.16666C9.85281 4.16666 9.70447 4.22809 9.59508 4.33745L10.0075 4.74987ZM4.34508 9.58751C4.28936 9.64132 4.24492 9.70569 4.21435 9.77686C4.18378 9.84803 4.16769 9.92457 4.16701 10.002C4.16634 10.0795 4.1811 10.1563 4.21043 10.228C4.23976 10.2997 4.28308 10.3648 4.33785 10.4196C4.39262 10.4744 4.45775 10.5177 4.52944 10.547C4.60113 10.5763 4.67794 10.5911 4.75539 10.5904C4.83285 10.5897 4.90939 10.5736 4.98056 10.5431C5.05173 10.5125 5.1161 10.4681 5.16991 10.4123L4.34508 9.58751ZM7.09083 15.8333H12.9242V14.6666H7.09083V15.8333ZM14.6742 14.0833V8.83325H13.5075V14.0833H14.6742ZM6.50749 14.0833V8.83325H5.34083V14.0833H6.50749ZM15.6699 9.58751L10.4199 4.33745L9.59508 5.16229L14.8451 10.4123L15.6699 9.58751ZM9.59508 4.33745L4.34508 9.58751L5.16991 10.4123L10.4199 5.16229L9.59508 4.33745ZM12.9242 15.8333C13.3883 15.8333 13.8334 15.6489 14.1616 15.3208C14.4898 14.9926 14.6742 14.5474 14.6742 14.0833H13.5075C13.5075 14.238 13.446 14.3864 13.3366 14.4958C13.2272 14.6052 13.0789 14.6666 12.9242 14.6666V15.8333ZM7.09083 14.6666C6.93612 14.6666 6.78774 14.6052 6.67835 14.4958C6.56895 14.3864 6.50749 14.238 6.50749 14.0833H5.34083C5.34083 14.5474 5.5252 14.9926 5.85339 15.3208C6.18158 15.6489 6.6267 15.8333 7.09083 15.8333V14.6666Z" fill="#186DFE"/>
</svg>
