<svg width="512" height="512" viewBox="0 0 512 512" fill="none" xmlns="http://www.w3.org/2000/svg">
<g clip-path="url(#clip0_9_48)">
<rect width="512" height="512" rx="128" fill="white"/>
<circle cx="256" cy="256" r="224" fill="url(#paint0_radial_9_48)"/>
<path fill-rule="evenodd" clip-rule="evenodd" d="M259 57H252V100.05C253.329 100.017 254.663 100 256 100C257.002 100 258.002 100.009 259 100.028V57ZM273.495 100.97C275.824 101.23 278.137 101.541 280.433 101.902L286.339 59.373L279.406 58.4102L273.495 100.97ZM297.677 105.629C299.933 106.253 302.167 106.926 304.38 107.647L316.872 66.6678L310.176 64.6267L297.677 105.629ZM321.751 114.492C323.87 115.478 325.963 116.511 328.029 117.588L347.03 79.2644L340.758 76.155L321.751 114.492ZM344.017 127.184C345.944 128.503 347.84 129.864 349.703 131.266L374.685 96.6009L369.006 92.5083L344.017 127.184ZM365.51 144.898C367.172 146.536 368.797 148.212 370.384 149.922L401.079 120.28L396.217 115.245L365.51 144.898ZM381.128 162.823C382.522 164.692 383.875 166.593 385.186 168.526L419.969 143.915L415.926 138.201L381.128 162.823ZM395.591 186.279C396.634 188.363 397.631 190.473 398.582 192.608L437.083 174.51L434.105 168.175L395.591 186.279ZM405.34 210.762C406.014 212.989 406.639 215.237 407.215 217.506L448.181 206.131L446.308 199.386L405.34 210.762ZM410.653 235.405C410.957 237.71 411.21 240.029 411.412 242.364L453.688 237.712L452.923 230.754L410.653 235.405ZM411.95 259.989C411.891 262.333 411.781 264.664 411.62 266.981L454.104 269.015L454.439 262.023L411.95 259.989ZM409.109 286.046C408.661 288.344 408.162 290.624 407.614 292.885L449.147 301.977L450.644 295.139L409.109 286.046ZM401.772 311.675C400.937 313.86 400.055 316.02 399.126 318.156L438.535 334.174L441.171 327.69L401.772 311.675ZM391.239 333.811C390.072 335.835 388.861 337.83 387.607 339.795L424.08 361.801L427.697 355.808L391.239 333.811ZM375.861 355.852C374.366 357.645 372.832 359.403 371.259 361.127L403.48 389.098L408.069 383.812L375.861 355.852ZM357.623 374.362C355.854 375.883 354.05 377.364 352.213 378.805L379.392 411.769L384.793 407.316L357.623 374.362ZM337.086 389.297C335.095 390.511 333.076 391.681 331.028 392.806L352.533 429.776L358.584 426.256L337.086 389.297ZM312.922 401.289C310.754 402.139 308.562 402.942 306.349 403.697L321.197 443.876L327.763 441.449L312.922 401.289ZM288.901 408.524C286.627 409.012 284.335 409.451 282.026 409.839L290.267 451.971L297.137 450.627L288.901 408.524ZM259 411.972C258.002 411.991 257.002 412 256 412C254.663 412 253.329 411.983 252 411.95V455H259V411.972ZM237.52 410.917C235.194 410.642 232.883 410.316 230.589 409.941L224.661 452.627L231.594 453.59L237.52 410.917ZM213.401 406.113C211.15 405.475 208.919 404.788 206.711 404.053L194.128 445.332L200.824 447.373L213.401 406.113ZM189.437 397.127C187.324 396.129 185.237 395.084 183.177 393.995L163.97 432.736L170.241 435.845L189.437 397.127ZM167.314 384.356C165.394 383.027 163.505 381.656 161.649 380.244L136.314 415.399L141.993 419.492L167.314 384.356ZM145.996 366.612C144.341 364.967 142.724 363.285 141.144 361.567L109.92 391.72L114.782 396.755L145.996 366.612ZM130.528 348.714C129.14 346.839 127.794 344.933 126.49 342.995L91.0302 368.085L95.0734 373.8L130.528 348.714ZM116.219 325.34C115.182 323.254 114.19 321.141 113.245 319.003L73.9161 337.49L76.894 343.825L116.219 325.34ZM106.583 300.982C105.913 298.753 105.291 296.504 104.72 294.234L62.8176 305.869L64.6904 312.614L106.583 300.982ZM101.333 276.486C101.031 274.182 100.779 271.862 100.578 269.527L57.3108 274.288L58.0765 281.246L101.333 276.486ZM100.049 252.06C100.107 249.716 100.217 247.385 100.377 245.067L56.8949 242.985L56.5601 249.977L100.049 252.06ZM102.85 226.164C103.295 223.866 103.791 221.585 104.336 219.324L61.8524 210.023L60.3554 216.861L102.85 226.164ZM110.094 200.677C110.923 198.491 111.801 196.328 112.724 194.19L72.4641 177.826L69.8283 184.311L110.094 200.677ZM120.503 178.638C121.663 176.61 122.868 174.611 124.115 172.642L86.9192 150.199L83.303 156.193L120.503 178.638ZM135.719 156.653C137.207 154.854 138.734 153.089 140.299 151.359L107.519 122.903L102.93 128.189L135.719 156.653ZM153.792 138.143C155.554 136.614 157.35 135.123 159.18 133.673L131.608 100.231L126.207 104.684L153.792 138.143ZM174.177 123.155C176.16 121.931 178.173 120.75 180.215 119.613L158.467 82.2252L152.416 85.7448L174.177 123.155ZM198.205 111.056C200.368 110.193 202.554 109.377 204.764 108.609L189.803 68.1249L183.237 70.5513L198.205 111.056ZM222.139 103.685C224.41 103.183 226.699 102.729 229.006 102.327L220.732 60.0297L213.862 61.3735L222.139 103.685Z" fill="white"/>
<path fill-rule="evenodd" clip-rule="evenodd" d="M241.645 57.452L234.672 58.062L236.247 76.0718C237.57 75.9272 238.897 75.7965 240.229 75.68C241.227 75.5927 242.223 75.5137 243.219 75.4429L241.645 57.452ZM261.184 75.0489C263.524 75.1131 265.856 75.2224 268.176 75.376L269.087 57.4336L262.096 57.0786L261.184 75.0489ZM289.587 78.0891C291.885 78.5219 294.17 78.9985 296.439 79.5182L300.14 62.0398L293.291 60.5901L289.587 78.0891ZM318.27 85.9975C320.464 86.8029 322.638 87.6498 324.793 88.5373L331.28 71.9605L324.762 69.4095L318.27 85.9975ZM345.235 98.5043C347.265 99.6574 349.272 100.849 351.254 102.078L360.341 86.8211L354.327 83.2389L345.235 98.5043ZM371.793 116.888C373.586 118.381 375.35 119.909 377.085 121.47L388.699 108.111L383.416 103.518L371.793 116.888ZM391.582 136.083C393.128 137.829 394.641 139.606 396.121 141.412L409.576 130.009L405.05 124.669L391.582 136.083ZM410.575 161.782C411.789 163.771 412.966 165.786 414.105 167.826L429.291 158.996L425.773 152.945L410.575 161.782ZM424.22 189.122C425.079 191.285 425.898 193.471 426.675 195.677L443.103 189.529L440.649 182.973L424.22 189.122ZM432.758 217.079C433.255 219.351 433.71 221.639 434.121 223.945L451.341 220.511L449.972 213.646L432.758 217.079ZM436.654 245.356C436.793 247.695 436.886 250.027 436.934 252.351L454.483 251.659L454.208 244.664L436.654 245.356ZM435.913 275.741C435.66 278.067 435.362 280.382 435.021 282.684L452.418 284.927L453.313 277.985L435.913 275.741ZM429.937 306.07C429.289 308.316 428.599 310.545 427.867 312.757L444.652 317.927L446.712 311.237L429.937 306.07ZM419.929 332.675C418.937 334.79 417.905 336.883 416.834 338.954L432.659 346.708L435.739 340.422L419.929 332.675ZM404.316 359.647C402.978 361.559 401.603 363.445 400.193 365.304L414.516 375.696L418.627 370.03L404.316 359.647ZM385.052 382.821C383.418 384.486 381.751 386.119 380.052 387.72L392.495 400.38L397.487 395.474L385.052 382.821ZM362.782 402.091C360.901 403.468 358.991 404.81 357.055 406.116L367.307 420.659L373.029 416.625L362.782 402.091ZM336.03 418.317C333.942 419.347 331.829 420.338 329.693 421.29L337.319 437.436L343.648 434.447L336.03 418.317ZM308.978 429.031C306.752 429.71 304.507 430.348 302.244 430.943L307.213 448.196L313.939 446.258L308.978 429.031ZM274.754 435.947C273.762 436.05 272.766 436.146 271.768 436.233C270.437 436.349 269.107 436.451 267.779 436.538L269.355 454.548L276.328 453.938L274.754 435.947ZM249.822 436.834C247.482 436.757 245.152 436.635 242.832 436.469L241.913 454.566L248.904 454.921L249.822 436.834ZM221.47 433.644C219.174 433.199 216.892 432.71 214.625 432.179L210.86 449.96L217.709 451.41L221.47 433.644ZM192.885 425.604C190.696 424.788 188.526 423.93 186.375 423.032L179.719 440.04L186.238 442.591L192.885 425.604ZM166.057 413.006C164.032 411.844 162.03 410.643 160.054 409.406L150.659 425.179L156.673 428.761L166.057 413.006ZM139.67 394.578C137.883 393.079 136.124 391.544 134.396 389.976L122.301 403.89L127.584 408.482L139.67 394.578ZM120.032 375.396C118.492 373.645 116.984 371.864 115.511 370.053L101.424 381.991L105.949 387.332L120.032 375.396ZM101.2 349.768C99.9913 347.776 98.8191 345.758 97.685 343.714L81.7084 353.004L85.2271 359.056L101.2 349.768ZM87.6777 322.542C86.8223 320.377 86.007 318.19 85.2328 315.983L67.8965 322.471L70.35 329.027L87.6777 322.542ZM79.2152 294.727C78.7199 292.455 78.2667 290.166 77.8565 287.86L59.6587 291.49L61.0278 298.354L79.2152 294.727ZM75.3457 266.605C75.2066 264.266 75.1128 261.934 75.0636 259.611L56.5165 260.342L56.7922 267.336L75.3457 266.605ZM76.0603 236.385C76.3108 234.059 76.606 231.744 76.9449 229.441L58.5827 227.073L57.6873 234.016L76.0603 236.385ZM81.9558 206.206C82.5987 203.959 83.2843 201.728 84.0117 199.515L66.3483 194.074L64.2877 200.764L81.9558 206.206ZM91.8484 179.707C92.8344 177.589 93.8604 175.493 94.9255 173.419L78.3409 165.293L75.2608 171.578L91.8484 179.707ZM107.305 152.804C108.637 150.887 110.005 148.997 111.408 147.133L96.4835 136.305L92.3728 141.97L107.305 152.804ZM126.405 129.644C128.032 127.973 129.692 126.332 131.384 124.724L118.505 111.62L113.513 116.527L126.405 129.644ZM148.518 110.335C150.393 108.949 152.296 107.597 154.226 106.282L143.693 91.342L137.972 95.3756L148.518 110.335ZM175.125 94.0141C177.209 92.9729 179.316 91.9704 181.447 91.0075L173.681 74.5646L167.351 77.554L175.125 94.0141ZM202.08 83.1708C204.302 82.4798 206.543 81.8301 208.804 81.2224L203.787 63.805L197.061 65.7423L202.08 83.1708Z" fill="white"/>
<path d="M280.5 232L231 280L105 100L280.5 232Z" fill="#21A5F3"/>
<path d="M231 280L280.5 232L406.5 411.5L231 280Z" fill="white"/>
</g>
<defs>
<radialGradient id="paint0_radial_9_48" cx="0" cy="0" r="1" gradientUnits="userSpaceOnUse" gradientTransform="translate(256 256) rotate(90) scale(224)">
<stop stop-color="#E09017"/>
<stop offset="1" stop-color="#FAB958"/>
</radialGradient>
<clipPath id="clip0_9_48">
<rect width="512" height="512" fill="white"/>
</clipPath>
</defs>
</svg>
