<svg width="20" height="21" viewBox="0 0 20 21" fill="none" xmlns="http://www.w3.org/2000/svg">
<g clip-path="url(#clip0_2499_4)">
<path d="M0.171875 10.6074C0.171875 11.1817 0.652344 11.6504 1.21484 11.6504H8.79688V19.2325C8.79688 19.795 9.26562 20.2754 9.83984 20.2754C10.4141 20.2754 10.8946 19.795 10.8946 19.2325V11.6504H18.4649C19.0274 11.6504 19.5078 11.1817 19.5078 10.6074C19.5078 10.0332 19.0274 9.55273 18.4649 9.55273H10.8946V1.98242C10.8946 1.41992 10.4141 0.939453 9.83984 0.939453C9.26562 0.939453 8.79688 1.41992 8.79688 1.98242V9.55273H1.21484C0.652344 9.55273 0.171875 10.0332 0.171875 10.6074Z" fill="#186DFE" fill-opacity="0.85"/>
</g>
<defs>
<clipPath id="clip0_2499_4">
<rect width="19.6875" height="19.3477" fill="white" transform="translate(0.171875 0.939453)"/>
</clipPath>
</defs>
</svg>
