<svg width="20" height="20" viewBox="0 0 20 20" fill="none" xmlns="http://www.w3.org/2000/svg">
<g clip-path="url(#clip0_20_203)">
<path d="M14.445 6.4C14.5866 6.40017 14.7228 6.45873 14.8258 6.56371C14.9288 6.66869 14.9907 6.81217 14.999 6.96484C15.0073 7.1175 14.9613 7.26783 14.8705 7.3851C14.7796 7.50237 14.6506 7.57774 14.51 7.5958L14.445 7.6H14.4L13.8894 14.2C13.8894 14.6591 13.7269 15.1009 13.4353 15.435C13.1436 15.769 12.7447 15.9701 12.3203 15.997L12.2225 16H7.7775C6.88962 16 6.16397 15.2506 6.11508 14.35L6.1123 14.2498L5.59946 7.6H5.55501C5.41339 7.59983 5.27718 7.54127 5.1742 7.43629C5.07122 7.33131 5.00926 7.18783 5.00096 7.03516C4.99266 6.8825 5.03865 6.73217 5.12955 6.6149C5.22044 6.49763 5.34937 6.42226 5.49 6.4042L5.55501 6.4H14.445ZM11.1112 4C11.406 4 11.6886 4.12643 11.897 4.35147C12.1054 4.57652 12.2225 4.88174 12.2225 5.2C12.2223 5.35293 12.1681 5.50002 12.0709 5.61122C11.9737 5.72242 11.8408 5.78934 11.6994 5.7983C11.5581 5.80727 11.4189 5.7576 11.3103 5.65944C11.2017 5.56129 11.1319 5.42206 11.1151 5.2702L11.1112 5.2H8.88875L8.88486 5.2702C8.86814 5.42206 8.79834 5.56129 8.68975 5.65944C8.58115 5.7576 8.44194 5.80727 8.30057 5.7983C8.15919 5.78934 8.02632 5.72242 7.92911 5.61122C7.83189 5.50002 7.77766 5.35293 7.7775 5.2C7.77742 4.89725 7.8833 4.60566 8.07393 4.38367C8.26456 4.16168 8.52584 4.02571 8.80541 4.003L8.88875 4H11.1112Z" fill="#186DFE"/>
</g>
<defs>
<clipPath id="clip0_20_203">
<rect width="20" height="20" fill="white"/>
</clipPath>
</defs>
</svg>
