<svg width="24" height="29" viewBox="0 0 24 29" fill="none" xmlns="http://www.w3.org/2000/svg">
<g clip-path="url(#clip0_2499_8)">
<path d="M7.875 22.3242C8.32031 22.3242 8.61328 22.043 8.60156 21.6328L8.23828 9.09375C8.22656 8.68359 7.93359 8.41406 7.51172 8.41406C7.06641 8.41406 6.77344 8.69531 6.78516 9.10547L7.13672 21.6328C7.14844 22.0547 7.44141 22.3242 7.875 22.3242ZM11.3438 22.3242C11.7891 22.3242 12.1055 22.043 12.1055 21.6328V9.10547C12.1055 8.69531 11.7891 8.41406 11.3438 8.41406C10.8984 8.41406 10.5938 8.69531 10.5938 9.10547V21.6328C10.5938 22.043 10.8984 22.3242 11.3438 22.3242ZM14.8242 22.3242C15.2461 22.3242 15.5391 22.0547 15.5508 21.6328L15.9023 9.10547C15.9141 8.69531 15.6211 8.41406 15.1758 8.41406C14.7539 8.41406 14.4609 8.68359 14.4492 9.10547L14.0977 21.6328C14.0859 22.043 14.3789 22.3242 14.8242 22.3242ZM6.19922 5.35547H8.0625V2.84766C8.0625 2.17969 8.53125 1.74609 9.23438 1.74609H13.4297C14.1328 1.74609 14.6016 2.17969 14.6016 2.84766V5.35547H16.4648V2.73047C16.4648 1.03125 15.3633 0 13.5586 0H9.10547C7.30078 0 6.19922 1.03125 6.19922 2.73047V5.35547ZM0.878906 6.29297H21.8203C22.3008 6.29297 22.6875 5.88281 22.6875 5.40234C22.6875 4.92188 22.3008 4.52344 21.8203 4.52344H0.878906C0.410156 4.52344 0 4.92188 0 5.40234C0 5.89453 0.410156 6.29297 0.878906 6.29297ZM5.97656 26.0977H16.7227C18.3984 26.0977 19.5234 25.0078 19.6055 23.332L20.4258 6.07031H18.5391L17.7539 23.1328C17.7305 23.8359 17.2266 24.3281 16.5352 24.3281H6.14062C5.47266 24.3281 4.96875 23.8242 4.93359 23.1328L4.10156 6.07031H2.26172L3.09375 23.3438C3.17578 25.0195 4.27734 26.0977 5.97656 26.0977Z" fill="#186DFE" fill-opacity="0.85"/>
</g>
<defs>
<clipPath id="clip0_2499_8">
<rect width="23.0391" height="28.1836" fill="white"/>
</clipPath>
</defs>
</svg>
