<svg width="12" height="15" viewBox="0 0 12 15" fill="none" xmlns="http://www.w3.org/2000/svg">
<g clip-path="url(#clip0_26_2)">
<path d="M8.32758 0.595478L11.2481 3.65026C11.6818 4.10878 11.8264 4.57325 11.8264 5.30568V10.1409C11.8264 11.3795 11.2249 12.0107 10.0336 12.0107H9.02153V11.052H9.98158C10.583 11.052 10.8953 10.7186 10.8953 10.1231V5.03176H8.18881C7.52373 5.03176 7.19985 4.70425 7.19985 4.0135V0.958715H4.64373C4.04228 0.958715 3.73577 1.29814 3.73577 1.88765V2.97142H2.80469V1.86979C2.80469 0.631205 3.40613 0 4.59746 0H6.81241C7.4312 0 7.917 0.160778 8.32758 0.595478ZM8.03844 3.87059C8.03844 4.079 8.11938 4.16832 8.32181 4.16832H10.6524L8.03844 1.42914V3.87059Z" fill="#186DFE"/>
<path d="M0 13.1124C0 14.3569 0.595662 14.9822 1.79277 14.9822H7.2289C8.42602 14.9822 9.02166 14.351 9.02166 13.1124V8.46169C9.02166 7.69948 8.93496 7.36604 8.47231 6.87777L5.28577 3.53714C4.84627 3.07267 4.48193 2.97144 3.83422 2.97144H1.79277C0.601446 2.97144 0 3.59668 0 4.84122V13.1124ZM0.931085 13.0945V4.85313C0.931085 4.26957 1.23759 3.93015 1.83904 3.93015H3.7359V7.38388C3.7359 8.1342 4.10602 8.50935 4.82314 8.50935H8.09059V13.0945C8.09059 13.69 7.77831 14.0235 7.18266 14.0235H1.83325C1.23759 14.0235 0.931085 13.69 0.931085 13.0945ZM4.93301 7.6102C4.70169 7.6102 4.60916 7.51493 4.60916 7.27671V4.15047L7.9113 7.6102H4.93301Z" fill="#186DFE"/>
</g>
<defs>
<clipPath id="clip0_26_2">
<rect width="12" height="15" fill="white"/>
</clipPath>
</defs>
</svg>
