<svg width="515" height="512" viewBox="0 0 515 512" fill="none" xmlns="http://www.w3.org/2000/svg">
<rect width="512" height="512" rx="128" fill="#DBBE72"/>
<rect x="67" y="102" width="330" height="209" rx="60" fill="#186DFE"/>
<rect x="111" y="150" width="242" height="24" rx="12" fill="white"/>
<rect x="111" y="150" width="242" height="24" rx="12" fill="white"/>
<rect x="111" y="198" width="242" height="24" rx="12" fill="white"/>
<rect x="111" y="198" width="242" height="24" rx="12" fill="white"/>
<rect x="111" y="246" width="242" height="24" rx="12" fill="white"/>
<rect x="111" y="246" width="242" height="24" rx="12" fill="white"/>
<g filter="url(#filter0_d_9_48)">
<path d="M337.59 401.296L297.099 259.264L430.145 339.636L393.704 352.058L435.618 400.632L405.103 424.24L362.695 372.665L337.59 401.296Z" fill="black"/>
<path d="M337.59 401.296L297.099 259.264L430.145 339.636L393.704 352.058L435.618 400.632L405.103 424.24L362.695 372.665L337.59 401.296Z" stroke="white" stroke-width="10"/>
</g>
<defs>
<filter id="filter0_d_9_48" x="284.806" y="248.413" width="162.043" height="190.752" filterUnits="userSpaceOnUse" color-interpolation-filters="sRGB">
<feFlood flood-opacity="0" result="BackgroundImageFix"/>
<feColorMatrix in="SourceAlpha" type="matrix" values="0 0 0 0 0 0 0 0 0 0 0 0 0 0 0 0 0 0 127 0" result="hardAlpha"/>
<feOffset dy="4"/>
<feGaussianBlur stdDeviation="2"/>
<feComposite in2="hardAlpha" operator="out"/>
<feColorMatrix type="matrix" values="0 0 0 0 0 0 0 0 0 0 0 0 0 0 0 0 0 0 0.25 0"/>
<feBlend mode="normal" in2="BackgroundImageFix" result="effect1_dropShadow_9_48"/>
<feBlend mode="normal" in="SourceGraphic" in2="effect1_dropShadow_9_48" result="shape"/>
</filter>
</defs>
</svg>
