<svg width="4096" height="2304" viewBox="0 0 4096 2304" fill="none" xmlns="http://www.w3.org/2000/svg">
<g clip-path="url(#clip0_9_47)">
<rect width="4096" height="2304" fill="white"/>
<path d="M3190.37 208L2873.37 -45H4116.37L4164.87 336L3190.37 208Z" fill="url(#paint0_linear_9_47)"/>
<path d="M3190.37 208L2873.37 -45H4116.37L4164.87 336L3190.37 208Z" fill="black" fill-opacity="0.04"/>
<path d="M3170.37 152C3765.97 209.2 4037.2 273.167 4098.37 298L4187.87 313L4213.87 1088C3617.87 752.167 2574.77 94.8 3170.37 152Z" fill="url(#paint1_linear_9_47)"/>
<path d="M3680.37 557.5C3413.72 307.744 3083.37 73.6667 2940.87 -1.5L2749.87 -74.5L2297.37 -1.5L2587.37 380L4016.87 1129.5L4156.37 955.5L4096.87 909C4084.34 882.058 3956.45 816.084 3680.37 557.5Z" fill="url(#paint2_linear_9_47)"/>
<path d="M2850.37 350.5C2775.97 230.9 2546.7 62.6667 2441.37 -6.5V-137L1414.87 -72L1421.87 44.5C1702.87 85.6667 2234.67 180 2113.87 228C1993.07 276 2081.87 282 2141.37 279L2386.87 364L2679.37 405C2767.37 436.667 2924.77 470.1 2850.37 350.5Z" fill="url(#paint3_linear_9_47)"/>
<path d="M2916.87 1285L1914.87 547.501C1525.21 341.325 767.049 -2.44649 1070.87 -24C1135.2 -28.5639 1433.41 -22.6472 1585.37 6.50047C2438.5 170.141 2472.82 189.939 2652.37 262.5C2857.2 335.834 3413.67 598 4000.87 1060L4068.37 1166L3593.87 1395L2916.87 1285Z" fill="url(#paint4_linear_9_47)"/>
<path d="M3618.37 1266C3856.77 1220.8 4040.04 1024.17 4101.87 931.5H4180.37V1651L3054.37 1604.5C3021.54 1450.67 2963.57 1172.7 3034.37 1211.5C3122.87 1260 3320.37 1322.5 3618.37 1266Z" fill="url(#paint5_linear_9_47)"/>
<path d="M3408.37 1298.5C3655.97 1314.1 4007.2 1213.67 4097.87 1157H4201.37C4200.2 1228.83 4198.57 1374.4 4201.37 1382C4204.17 1389.6 3791.2 1402.5 3584.37 1408L3248.87 1345L2983.37 1204C3057.87 1232 3160.77 1282.9 3408.37 1298.5Z" fill="url(#paint6_linear_9_47)"/>
<path d="M4095.87 1331C3375.87 1415 3199.87 1351 2787.87 1043C2481.03 813.615 2357.87 737.057 2189.37 620C2001.2 468.667 1495.07 129.4 975.871 -17L895.871 -97H-80.1289V620L-4.12891 290.5L749.871 527L2036.87 945.5L3658.87 2255.5L3171.87 2579H4327.87C4490.54 2135 4671.87 1263.8 4095.87 1331Z" fill="url(#paint7_linear_9_47)"/>
<path d="M2020.37 1093C1278.77 717 362.538 477.333 -11.1289 384.5V2385.5L3413.87 2345.5C3381.37 2093.67 2761.97 1469 2020.37 1093Z" fill="url(#paint8_linear_9_47)"/>
<path fill-rule="evenodd" clip-rule="evenodd" d="M1358.87 639.5C902.071 537.5 255.204 306 -11.1289 203H-41.6289V2375.5H4122.37C4187.2 2256.83 4277.97 2008.8 4122.37 1966C3966.77 1923.2 3903.2 1887.5 3890.87 1875C3723.62 1780.78 3420.5 1597.57 3195.37 1452C3189.81 1448.41 3184.28 1444.82 3178.76 1441.26C3138.55 1415.24 3099.72 1390.12 3065.87 1369C3050.52 1359.42 3037.44 1350.96 3024.37 1342.5C3023.91 1342.2 3023.29 1341.82 3022.57 1341.37L3008.37 1332.5C2831.17 1198.1 2494.87 1029 2345.87 958.5C2207.2 894.667 1815.67 741.5 1358.87 639.5ZM-4.62891 391C259.704 462.667 848.771 629.5 1090.37 723.5C1135.66 741.119 1177.31 756.917 1217.54 772.176C1445.63 858.68 1628.09 927.883 2167.87 1213.5C2675.87 1482.3 3201.2 2073.17 3400.37 2335H-4.62891V391Z" fill="url(#paint9_linear_9_47)"/>
<path d="M2502.37 2277.5C2523.37 2288.33 2569.37 2331.5 2579.37 2337.5L2577.87 2361.5H1721.37L1941.87 2223.5L2207.87 2183.5L2502.37 2277.5Z" fill="url(#paint10_linear_9_47)"/>
<path d="M2502.37 2277.5C2523.37 2288.33 2569.37 2331.5 2579.37 2337.5L2577.87 2361.5H1721.37L1941.87 2223.5L2207.87 2183.5L2502.37 2277.5Z" fill="url(#paint11_linear_9_47)"/>
<path d="M1465.87 2018L1205.87 2446.5C1383.7 2419.33 1760.27 2352.6 1843.87 2303C1948.37 2241 1975.87 2248.5 2047.87 2215.5C2119.87 2182.5 2336.87 2227.5 2358.37 2248.5C2375.57 2265.3 2484.54 2291.83 2536.87 2303L2239.87 2078L1931.37 1957.5L1465.87 2018Z" fill="url(#paint12_linear_9_47)"/>
<path d="M1465.87 2018L1205.87 2446.5C1383.7 2419.33 1760.27 2352.6 1843.87 2303C1948.37 2241 1975.87 2248.5 2047.87 2215.5C2119.87 2182.5 2336.87 2227.5 2358.37 2248.5C2375.57 2265.3 2484.54 2291.83 2536.87 2303L2239.87 2078L1931.37 1957.5L1465.87 2018Z" fill="url(#paint13_linear_9_47)"/>
<path d="M1097.37 1845L1038.87 2374C1113.7 2399.33 1283.37 2419.8 1363.37 2299C1463.37 2148 1445.37 2129 1665.37 2031.5C1841.37 1953.5 2104.37 2022 2213.87 2066C2228.7 2026.67 2242.27 1945.9 2177.87 1937.5C2113.47 1929.1 2019.37 1892 1980.37 1874.5L1963.87 1845L1665.37 1765.5L1097.37 1845Z" fill="url(#paint14_radial_9_47)"/>
<path d="M1097.37 1845L1038.87 2374C1113.7 2399.33 1283.37 2419.8 1363.37 2299C1463.37 2148 1445.37 2129 1665.37 2031.5C1841.37 1953.5 2104.37 2022 2213.87 2066C2228.7 2026.67 2242.27 1945.9 2177.87 1937.5C2113.47 1929.1 2019.37 1892 1980.37 1874.5L1963.87 1845L1665.37 1765.5L1097.37 1845Z" fill="url(#paint15_linear_9_47)"/>
<path d="M1990.37 1878.5L1877.87 1734.5L1486.87 1584L1045.87 1620L546.871 1838L598.871 2474L1045.87 2526C1057.87 2442.83 1079.67 2281.4 1070.87 2301C1059.87 2325.5 1106.87 2037 1126.87 2015.5C1146.87 1994 1173.85 1899.48 1466.37 1817.5C1699.83 1752.07 1915.37 1841.67 1990.37 1878.5Z" fill="url(#paint16_linear_9_47)"/>
<path d="M1990.37 1878.5L1877.87 1734.5L1486.87 1584L1045.87 1620L546.871 1838L598.871 2474L1045.87 2526C1057.87 2442.83 1079.67 2281.4 1070.87 2301C1059.87 2325.5 1106.87 2037 1126.87 2015.5C1146.87 1994 1173.85 1899.48 1466.37 1817.5C1699.83 1752.07 1915.37 1841.67 1990.37 1878.5Z" fill="url(#paint17_linear_9_47)"/>
<path d="M310.871 1829V2298V2384H685.871V2298C618.204 2171.67 590.004 1886.96 998.871 1711.5C1388.95 1544.1 1732.16 1678.83 1909.87 1770.5C1843.2 1692.49 1812.15 1665.01 1769.37 1648.5C1601.29 1565.93 1539.3 1558.89 1433.87 1512L975.371 1403L451.371 1551.5L310.871 1829Z" fill="url(#paint18_radial_9_47)"/>
<path d="M310.871 1829V2298V2384H685.871V2298C618.204 2171.67 590.004 1886.96 998.871 1711.5C1388.95 1544.1 1732.16 1678.83 1909.87 1770.5C1843.2 1692.49 1812.15 1665.01 1769.37 1648.5C1601.29 1565.93 1539.3 1558.89 1433.87 1512L975.371 1403L451.371 1551.5L310.871 1829Z" fill="url(#paint19_linear_9_47)"/>
<path d="M1299.37 1290.5C732.171 1048.5 187.371 866 -14.1289 805L-179.629 1402C549.704 1465.67 1866.57 1532.5 1299.37 1290.5Z" fill="url(#paint20_linear_9_47)"/>
<path d="M1299.37 1290.5C732.171 1048.5 187.371 866 -14.1289 805L-179.629 1402C549.704 1465.67 1866.57 1532.5 1299.37 1290.5Z" fill="url(#paint21_linear_9_47)"/>
<path d="M1050.37 1252C779.572 1179.2 230.539 1263.67 -10.1281 1315H-129.128C-291.795 1581.67 -495.728 2041.2 29.8716 1642C555.472 1242.8 1195.21 1349.67 1448.87 1462.5C1425.87 1425 1321.17 1324.8 1050.37 1252Z" fill="url(#paint22_linear_9_47)"/>
<path d="M1050.37 1252C779.572 1179.2 230.539 1263.67 -10.1281 1315H-129.128C-291.795 1581.67 -495.728 2041.2 29.8716 1642C555.472 1242.8 1195.21 1349.67 1448.87 1462.5C1425.87 1425 1321.17 1324.8 1050.37 1252Z" fill="url(#paint23_linear_9_47)"/>
<path d="M125.37 1549.5C635.77 1208.7 1190.7 1339 1447.37 1460.5L1520.87 1546.5C229.87 1277 328.066 2191.66 337.37 2246.5C346.872 2302.5 343.37 2427 337.37 2401L330.345 2400.39C287.021 2405.99 54.7182 2479.38 -63.6284 2366C-225.566 2210.86 -228.286 1785.64 125.37 1549.5Z" fill="url(#paint24_linear_9_47)"/>
<path d="M125.37 1549.5C635.77 1208.7 1190.7 1339 1447.37 1460.5L1520.87 1546.5C229.87 1277 328.066 2191.66 337.37 2246.5C346.872 2302.5 343.37 2427 337.37 2401L330.345 2400.39C287.021 2405.99 54.7182 2479.38 -63.6284 2366C-225.566 2210.86 -228.286 1785.64 125.37 1549.5Z" fill="url(#paint25_linear_9_47)"/>
</g>
<defs>
<linearGradient id="paint0_linear_9_47" x1="2962.87" y1="11.5" x2="4072.87" y2="274.5" gradientUnits="userSpaceOnUse">
<stop stop-color="#8896FD"/>
<stop offset="0.159726" stop-color="#8796FD"/>
<stop offset="0.309065" stop-color="#8693FC"/>
<stop offset="0.487398" stop-color="#838FFB"/>
<stop offset="0.625654" stop-color="#828EFE"/>
<stop offset="0.784868" stop-color="#7E8BFE"/>
<stop offset="1" stop-color="#7985FD"/>
</linearGradient>
<linearGradient id="paint1_linear_9_47" x1="3328.87" y1="203" x2="4108.87" y2="855.5" gradientUnits="userSpaceOnUse">
<stop stop-color="#8C9CFC"/>
<stop offset="0.122247" stop-color="#8B9EFC"/>
<stop offset="0.264352" stop-color="#8BA0FD"/>
<stop offset="0.492005" stop-color="#8C9FFD"/>
<stop offset="0.70647" stop-color="#8B9BFD"/>
<stop offset="1" stop-color="#8897FC"/>
</linearGradient>
<linearGradient id="paint2_linear_9_47" x1="2615.37" y1="7.00006" x2="4081.87" y2="1001.5" gradientUnits="userSpaceOnUse">
<stop stop-color="#9CA6FB"/>
<stop offset="0.16702" stop-color="#8D9BFC"/>
<stop offset="0.290305" stop-color="#8694FD"/>
<stop offset="0.454498" stop-color="#7A89FC"/>
<stop offset="0.600363" stop-color="#7181FB"/>
<stop offset="0.742279" stop-color="#6D77FB"/>
<stop offset="0.871923" stop-color="#6A73FE"/>
<stop offset="1" stop-color="#696EFD"/>
</linearGradient>
<linearGradient id="paint3_linear_9_47" x1="1546.37" y1="6.00005" x2="2655.37" y2="104.5" gradientUnits="userSpaceOnUse">
<stop stop-color="#BD95D4"/>
<stop offset="0.151633" stop-color="#B897DA"/>
<stop offset="0.331223" stop-color="#AE96E3"/>
<stop offset="0.471415" stop-color="#A596EA"/>
<stop offset="0.645349" stop-color="#9895F7"/>
<stop offset="0.842597" stop-color="#8F93FE"/>
<stop offset="1" stop-color="#8D96FD"/>
</linearGradient>
<linearGradient id="paint4_linear_9_47" x1="3021.87" y1="390.5" x2="2662.87" y2="1179" gradientUnits="userSpaceOnUse">
<stop stop-color="#6A72FB"/>
<stop offset="0.149337" stop-color="#7872F7"/>
<stop offset="0.296268" stop-color="#8D75E7"/>
<stop offset="0.455485" stop-color="#AF79C2"/>
<stop offset="0.599639" stop-color="#CA82A8"/>
<stop offset="0.735919" stop-color="#D6879C"/>
<stop offset="1" stop-color="#D88796"/>
</linearGradient>
<linearGradient id="paint5_linear_9_47" x1="3034.37" y1="1115" x2="4144.37" y2="1308.5" gradientUnits="userSpaceOnUse">
<stop stop-color="#816C41"/>
<stop offset="0.142981" stop-color="#636B3A"/>
<stop offset="0.294069" stop-color="#5B6841"/>
<stop offset="0.452509" stop-color="#4A7035"/>
<stop offset="0.628479" stop-color="#688542"/>
<stop offset="0.783704" stop-color="#90A347"/>
<stop offset="1" stop-color="#94AA46"/>
</linearGradient>
<linearGradient id="paint6_linear_9_47" x1="2983.87" y1="1207" x2="4113.87" y2="1332" gradientUnits="userSpaceOnUse">
<stop stop-color="#876B43"/>
<stop offset="0.0644059" stop-color="#7B6D40"/>
<stop offset="0.133337" stop-color="#696B3A"/>
<stop offset="0.284358" stop-color="#516935"/>
<stop offset="0.486318" stop-color="#416A2E"/>
<stop offset="0.607353" stop-color="#477B30"/>
<stop offset="0.76391" stop-color="#578E34"/>
<stop offset="0.973628" stop-color="#75983C"/>
</linearGradient>
<linearGradient id="paint7_linear_9_47" x1="51.8712" y1="34.9999" x2="4067.87" y2="1779" gradientUnits="userSpaceOnUse">
<stop stop-color="#F6795F"/>
<stop offset="0.181846" stop-color="#F7805F"/>
<stop offset="0.352545" stop-color="#F26760"/>
<stop offset="0.467218" stop-color="#F26762"/>
<stop offset="0.583127" stop-color="#E26664"/>
<stop offset="0.664071" stop-color="#BA6A53"/>
<stop offset="0.739911" stop-color="#7E6B41"/>
<stop offset="0.827736" stop-color="#44672F"/>
<stop offset="0.916729" stop-color="#3A6828"/>
<stop offset="1" stop-color="#4F7D35"/>
</linearGradient>
<linearGradient id="paint8_linear_9_47" x1="1166.37" y1="607" x2="2364.37" y2="2366.5" gradientUnits="userSpaceOnUse">
<stop offset="0.0932471" stop-color="#1B5629"/>
<stop offset="0.290816" stop-color="#225A29"/>
<stop offset="0.460128" stop-color="#45722F"/>
<stop offset="0.691546" stop-color="#699137"/>
<stop offset="1" stop-color="#8FB641"/>
</linearGradient>
<linearGradient id="paint9_linear_9_47" x1="1176.87" y1="661" x2="3753.37" y2="1956.5" gradientUnits="userSpaceOnUse">
<stop offset="0.0158612" stop-color="#E55E4B"/>
<stop offset="0.199858" stop-color="#C15F42"/>
<stop offset="0.368132" stop-color="#845B35"/>
<stop offset="0.500305" stop-color="#355A2E"/>
<stop offset="0.630086" stop-color="#1D582A"/>
<stop offset="0.783928" stop-color="#32652C"/>
<stop offset="0.882452" stop-color="#4E7930"/>
<stop offset="1" stop-color="#739B38"/>
</linearGradient>
<linearGradient id="paint10_linear_9_47" x1="1830.87" y1="2309" x2="2563.87" y2="2310" gradientUnits="userSpaceOnUse">
<stop stop-color="#A0C247"/>
<stop offset="0.112449" stop-color="#ACD14D"/>
<stop offset="0.225084" stop-color="#BBE253"/>
<stop offset="0.372655" stop-color="#B5DC4F"/>
<stop offset="0.617311" stop-color="#A8D04B"/>
<stop offset="0.794006" stop-color="#AAD04F"/>
<stop offset="1" stop-color="#AAD050"/>
</linearGradient>
<linearGradient id="paint11_linear_9_47" x1="2149.87" y1="2147" x2="2578.87" y2="2350" gradientUnits="userSpaceOnUse">
<stop stop-color="#ADD34C" stop-opacity="0"/>
<stop offset="0.648619" stop-color="#8BB240"/>
<stop offset="0.873368" stop-color="#8EB541"/>
<stop offset="1" stop-color="#8FB641"/>
</linearGradient>
<linearGradient id="paint12_linear_9_47" x1="1378.37" y1="2202" x2="2631.87" y2="2353.5" gradientUnits="userSpaceOnUse">
<stop stop-color="#9EC048"/>
<stop offset="0.101449" stop-color="#B1D64F"/>
<stop offset="0.196348" stop-color="#B3D752"/>
<stop offset="0.335855" stop-color="#9CBE46"/>
<stop offset="0.507397" stop-color="#92B743"/>
<stop offset="0.70945" stop-color="#8DB240"/>
<stop offset="1" stop-color="#91B843"/>
</linearGradient>
<linearGradient id="paint13_linear_9_47" x1="1852.87" y1="2004" x2="2536.87" y2="2299" gradientUnits="userSpaceOnUse">
<stop stop-color="#9BBD46" stop-opacity="0"/>
<stop offset="0.537783" stop-color="#7FA63D"/>
<stop offset="0.728451" stop-color="#89B03F"/>
<stop offset="1" stop-color="#8FB641"/>
</linearGradient>
<radialGradient id="paint14_radial_9_47" cx="0" cy="0" r="1" gradientUnits="userSpaceOnUse" gradientTransform="translate(1527.87 2140.5) rotate(-115.881) scale(318.439 491.425)">
<stop stop-color="#95B745"/>
<stop offset="0.377096" stop-color="#9ABE48"/>
<stop offset="0.713132" stop-color="#A7CE4D"/>
<stop offset="1" stop-color="#9DC34A"/>
</radialGradient>
<linearGradient id="paint15_linear_9_47" x1="2225.87" y1="2045" x2="1598.37" y2="1784" gradientUnits="userSpaceOnUse">
<stop stop-color="#79A03B"/>
<stop offset="0.138436" stop-color="#749B3A"/>
<stop offset="0.248016" stop-color="#709739"/>
<stop offset="0.403691" stop-color="#6C9338"/>
<stop offset="1" stop-color="#9ABF48" stop-opacity="0"/>
</linearGradient>
<linearGradient id="paint16_linear_9_47" x1="635.371" y1="2036" x2="2221.37" y2="3105.5" gradientUnits="userSpaceOnUse">
<stop stop-color="#89AD41"/>
<stop offset="0.0374503" stop-color="#ACCF4F"/>
<stop offset="0.145498" stop-color="#B2D551"/>
<stop offset="0.220049" stop-color="#A4C64B"/>
<stop offset="0.260048" stop-color="#93B443"/>
<stop offset="0.338154" stop-color="#89AD3F"/>
<stop offset="0.411385" stop-color="#87AB3F"/>
<stop offset="0.4967" stop-color="#81A63D"/>
<stop offset="0.614174" stop-color="#7DA23B"/>
<stop offset="0.72381" stop-color="#7AA03B"/>
<stop offset="0.871877" stop-color="#769C39"/>
<stop offset="1" stop-color="#769D3A"/>
</linearGradient>
<linearGradient id="paint17_linear_9_47" x1="1268.62" y1="1584" x2="1976.37" y2="1829" gradientUnits="userSpaceOnUse">
<stop stop-color="#7EA23C" stop-opacity="0"/>
<stop offset="0.898936" stop-color="#628B35"/>
<stop offset="1" stop-color="#689037"/>
</linearGradient>
<radialGradient id="paint18_radial_9_47" cx="0" cy="0" r="1" gradientUnits="userSpaceOnUse" gradientTransform="translate(1109.87 2011.5) rotate(73.2264) scale(479.919 782.254)">
<stop stop-color="#9CC046"/>
<stop offset="0.205698" stop-color="#AED34F"/>
<stop offset="0.422032" stop-color="#A8CD4D"/>
<stop offset="0.62417" stop-color="#90B041"/>
<stop offset="0.847492" stop-color="#97B845"/>
<stop offset="1" stop-color="#A3C54B"/>
</radialGradient>
<linearGradient id="paint19_linear_9_47" x1="968.371" y1="1424.5" x2="1862.37" y2="1724" gradientUnits="userSpaceOnUse">
<stop stop-color="#95B645" stop-opacity="0"/>
<stop offset="0.411228" stop-color="#98B845" stop-opacity="0.33"/>
<stop offset="0.645974" stop-color="#658E37" stop-opacity="0.930595"/>
<stop offset="0.800667" stop-color="#547F32"/>
<stop offset="0.904653" stop-color="#5A8434"/>
<stop offset="1" stop-color="#5F8935"/>
</linearGradient>
<linearGradient id="paint20_linear_9_47" x1="213.371" y1="877" x2="39.8711" y2="1362.5" gradientUnits="userSpaceOnUse">
<stop offset="0.00233954" stop-color="#35662E"/>
<stop offset="0.324795" stop-color="#588334"/>
<stop offset="0.633841" stop-color="#6F9639"/>
<stop offset="1" stop-color="#7EA43D"/>
</linearGradient>
<linearGradient id="paint21_linear_9_47" x1="1437.87" y1="1395.5" x2="753.371" y2="1103" gradientUnits="userSpaceOnUse">
<stop stop-color="#34672C"/>
<stop offset="0.46329" stop-color="#447330" stop-opacity="0"/>
<stop offset="1" stop-opacity="0"/>
<stop offset="1" stop-opacity="0"/>
</linearGradient>
<linearGradient id="paint22_linear_9_47" x1="471.372" y1="1224" x2="519.372" y2="1397" gradientUnits="userSpaceOnUse">
<stop stop-color="#6B933A"/>
<stop offset="0.497615" stop-color="#739A3A"/>
<stop offset="1" stop-color="#709538"/>
</linearGradient>
<linearGradient id="paint23_linear_9_47" x1="778.872" y1="1167.5" x2="1448.87" y2="1460.5" gradientUnits="userSpaceOnUse">
<stop stop-color="#4D7830" stop-opacity="0"/>
<stop offset="0.978085" stop-color="#396A2D"/>
</linearGradient>
<linearGradient id="paint24_linear_9_47" x1="612.372" y1="1621" x2="436.372" y2="1377" gradientUnits="userSpaceOnUse">
<stop stop-color="#749637"/>
<stop offset="0.432407" stop-color="#799C38"/>
<stop offset="0.675336" stop-color="#82A73D"/>
<stop offset="1" stop-color="#90B646"/>
</linearGradient>
<linearGradient id="paint25_linear_9_47" x1="1210.87" y1="1422" x2="1469.87" y2="1484" gradientUnits="userSpaceOnUse">
<stop offset="0.00500367" stop-color="#749637" stop-opacity="0"/>
<stop offset="0.708639" stop-color="#3D7825" stop-opacity="0.585285"/>
<stop offset="1" stop-color="#416F2E"/>
</linearGradient>
<clipPath id="clip0_9_47">
<rect width="4096" height="2304" fill="white"/>
</clipPath>
</defs>
</svg>
