<svg width="163" height="163" viewBox="0 0 163 163" fill="none" xmlns="http://www.w3.org/2000/svg">
<g filter="url(#filter0_d_1_27)">
<circle cx="81.5" cy="77.5" r="77.5" fill="#27AA35"/>
<circle cx="81" cy="77" r="71" fill="#36C84B"/>
<path d="M118.242 38.8833C118.797 38.8817 119.247 39.3317 119.245 39.8862L119.092 93.5891C119.09 94.4786 118.014 94.9223 117.385 94.2933L63.8351 40.7432C63.2061 40.1142 63.6499 39.0387 64.5394 39.0361L118.242 38.8833Z" fill="#0B650D"/>
<path d="M43.8862 115.245C43.3317 115.247 42.8818 114.797 42.8833 114.242L43.0361 60.5394C43.0387 59.6499 44.1142 59.2061 44.7432 59.8351L98.2934 113.385C98.9223 114.014 98.4786 115.09 97.5891 115.092L43.8862 115.245Z" fill="#0B650D"/>
</g>
<defs>
<filter id="filter0_d_1_27" x="0" y="0" width="163" height="163" filterUnits="userSpaceOnUse" color-interpolation-filters="sRGB">
<feFlood flood-opacity="0" result="BackgroundImageFix"/>
<feColorMatrix in="SourceAlpha" type="matrix" values="0 0 0 0 0 0 0 0 0 0 0 0 0 0 0 0 0 0 127 0" result="hardAlpha"/>
<feOffset dy="4"/>
<feGaussianBlur stdDeviation="2"/>
<feComposite in2="hardAlpha" operator="out"/>
<feColorMatrix type="matrix" values="0 0 0 0 0 0 0 0 0 0 0 0 0 0 0 0 0 0 0.25 0"/>
<feBlend mode="normal" in2="BackgroundImageFix" result="effect1_dropShadow_1_27"/>
<feBlend mode="normal" in="SourceGraphic" in2="effect1_dropShadow_1_27" result="shape"/>
</filter>
</defs>
</svg>
