<svg width="512" height="512" viewBox="0 0 512 512" fill="none" xmlns="http://www.w3.org/2000/svg">
<path fill-rule="evenodd" clip-rule="evenodd" d="M63.1497 105.411C45 135.156 45 175.604 45 256.5C45 337.396 45 377.844 63.1497 407.589C73.4255 424.429 87.5709 438.575 104.411 448.85C134.156 467 174.604 467 255.5 467C336.396 467 376.844 467 406.589 448.85C423.429 438.575 437.575 424.429 447.85 407.589C466 377.844 466 337.396 466 256.5C466 175.604 466 135.156 447.85 105.411C437.575 88.5709 423.429 74.4255 406.589 64.1497C376.844 46 336.396 46 255.5 46C174.604 46 134.156 46 104.411 64.1497C87.5709 74.4255 73.4255 88.5709 63.1497 105.411ZM412 256C412 342.156 342.156 412 256 412C169.844 412 100 342.156 100 256C100 169.844 169.844 100 256 100C342.156 100 412 169.844 412 256ZM190 173C190 161.402 199.402 152 211 152C222.598 152 232 161.402 232 173V225H303C303.504 225 304.005 225.018 304.5 225.053C304.995 225.018 305.496 225 306 225C317.598 225 327 234.402 327 246V330C327 341.598 317.598 351 306 351C294.402 351 285 341.598 285 330V267H232V330C232 341.598 222.598 351 211 351C199.402 351 190 341.598 190 330V173Z" fill="white"/>
</svg>
