<svg width="543" height="542" viewBox="0 0 543 542" fill="none" xmlns="http://www.w3.org/2000/svg">
<path fill-rule="evenodd" clip-rule="evenodd" d="M67.4995 11.8455C52.269 -3.38501 27.5757 -3.38501 12.3452 11.8455C-2.88525 27.0759 -2.88525 51.7693 12.3452 66.9998L216.346 271L12.3452 475C-2.88525 490.231 -2.88525 514.924 12.3452 530.155C27.5757 545.385 52.269 545.385 67.4995 530.155L271.5 326.154L475.5 530.155C490.73 545.385 515.424 545.385 530.654 530.155C545.885 514.924 545.885 490.231 530.654 475L326.654 271L530.654 66.9998C545.885 51.7695 545.885 27.0759 530.654 11.8455C515.424 -3.38501 490.73 -3.38501 475.5 11.8455L271.5 215.846L67.4995 11.8455Z" fill="white"/>
<path fill-rule="evenodd" clip-rule="evenodd" d="M67.4995 11.8455C52.269 -3.38501 27.5757 -3.38501 12.3452 11.8455C-2.88525 27.0759 -2.88525 51.7693 12.3452 66.9998L216.346 271L12.3452 475C-2.88525 490.231 -2.88525 514.924 12.3452 530.155C27.5757 545.385 52.269 545.385 67.4995 530.155L271.5 326.154L475.5 530.155C490.73 545.385 515.424 545.385 530.654 530.155C545.885 514.924 545.885 490.231 530.654 475L326.654 271L530.654 66.9998C545.885 51.7695 545.885 27.0759 530.654 11.8455C515.424 -3.38501 490.73 -3.38501 475.5 11.8455L271.5 215.846L67.4995 11.8455Z" fill="white"/>
</svg>
