<svg width="480" height="480" viewBox="0 0 480 480" fill="none" xmlns="http://www.w3.org/2000/svg">
<path d="M480 239.999C480 371.294 371.295 480 240 480C108.941 480 0 371.294 0 239.999C0 108.941 108.706 0 239.765 0C371.06 0 480 108.941 480 239.999ZM215.295 92.4705C194.118 92.4705 180.942 105.412 180.942 125.412V144.941H122.589C116.941 144.941 112.235 149.647 112.235 155.529C112.235 161.176 116.941 165.647 122.589 165.647H142.353L150.824 357.411C151.295 373.882 160.941 383.057 177.412 383.057H302.824C319.059 383.057 329.177 373.882 329.883 357.411L338.117 165.647H357.178C363.059 165.647 367.296 161.176 367.53 155.529C367.765 149.647 363.059 144.941 357.178 144.941H299.059V125.412C299.059 105.412 285.648 92.4705 264.237 92.4705H215.295ZM202.118 195.529L206.824 337.176C206.824 341.883 203.529 345.41 198.353 345.41C193.412 345.41 189.412 341.883 189.412 337.176L184.471 195.529C184.471 190.353 187.53 187.058 193.412 187.058C198.353 187.058 202.118 190.353 202.118 195.529ZM248.706 195.529V337.176C248.706 341.883 245.176 345.41 239.765 345.41C234.354 345.41 230.824 341.883 230.824 337.176V195.529C230.824 190.353 234.119 187.058 239.765 187.058C245.176 187.058 248.706 190.353 248.706 195.529ZM294.824 195.529L289.883 337.176C289.883 341.883 285.883 345.41 280.942 345.41C275.766 345.41 272.471 341.883 272.471 337.176L277.177 195.529C277.412 190.353 280.942 187.058 286.118 187.058C291.764 187.058 294.824 190.353 294.824 195.529ZM273.882 126.823V144.941H205.648V126.823C205.648 120.47 210.117 116.235 216.707 116.235H262.823C269.413 116.235 273.882 120.47 273.882 126.823Z" fill="black" fill-opacity="0.85"/>
</svg>
